<svg width="355" height="525" viewBox="0 0 355 525" fill="none" xmlns="http://www.w3.org/2000/svg">
<path d="M205.934 440.272C185.904 440.221 166.658 440.171 147.211 440.11C148.814 459.366 151.978 478.793 160.564 497.05C162.475 501.117 164.982 505.073 167.933 508.535C174.3 515.993 180.807 515.892 186.031 507.606C190.583 500.37 194.415 492.55 197.282 484.566C202.504 469.993 204.914 454.814 205.934 440.272Z" fill="#EB621A" stroke="black" stroke-width="7" stroke-miterlimit="10"/>
<path d="M302.104 328.426C331.752 354.709 345.539 386.095 340.846 423.604C336.026 461.998 314.157 489.721 278.815 507.944C278.559 501.898 278.384 496.274 278.058 490.65C276.835 469.527 270.384 449.987 258.238 432.206C256.515 429.681 254.698 427.689 257.26 424.035C277.196 395.583 291.741 364.773 300.8 331.659C300.987 330.961 301.337 330.308 302.104 328.426Z" fill="#154F99"/>
<path d="M265.307 114.511C265.632 115.153 265.715 115.905 265.785 116.127C206.465 116.082 147.147 116.049 87.5024 116.016C98.0406 94.97 110.979 74.92 127.677 57.549C141.162 43.5219 156.417 31.0342 170.844 17.8367C174.478 14.516 177.412 13.7407 182.116 17.1941C217.901 43.4677 245.395 76.039 265.307 114.511Z" fill="#D9DEF4"/>
<path d="M269.72 377.57C268.089 381.113 266.169 382.774 261.65 382.752C204.731 382.442 147.799 382.342 90.88 382.32C87.3057 382.32 85.3496 381.39 83.8936 378.191C47.306 297.737 44.3359 216.63 78.2227 134.693C79.6778 131.184 81.402 129.701 85.6631 129.711C146.449 129.866 207.235 129.822 268.02 129.855C269.838 129.855 271.655 130.198 273.156 130.342C274.099 132.345 274.787 133.662 275.333 135.025C307.95 216.597 306.529 297.449 269.72 377.57ZM177.505 335.113C228.905 335.113 270.571 295.501 270.571 246.632C270.571 197.754 228.906 158.142 177.505 158.142C126.093 158.142 84.429 197.754 84.429 246.632C84.4281 295.501 126.093 335.113 177.505 335.113Z" fill="#4B7BB9"/>
<path d="M250.821 411.67C246.42 420.837 239.793 423.571 229.057 423.35C191.829 422.598 154.565 422.996 117.314 423.184C112.924 423.206 110.071 422.066 107.894 418.479C103.282 410.884 98.4373 403.412 93.407 395.452C149.581 395.474 204.719 395.507 260.662 395.54C257.376 400.842 253.534 406.012 250.821 411.67Z" fill="#23D0F0"/>
<path d="M270.571 246.633C270.571 295.5 228.906 335.113 177.505 335.113C126.093 335.113 84.429 295.501 84.429 246.633C84.429 197.754 126.094 158.142 177.505 158.142C228.905 158.142 270.571 197.754 270.571 246.633Z" fill="#CEF2EE"/>
<path d="M223.665 232.945C225.068 235.916 225.99 239.16 225.167 242.442C224.072 246.808 221.434 250.561 219.169 254.351C217.393 257.319 215.546 260.35 213.117 262.821L210.829 268.347L144.858 262.004C143.641 260.856 142.495 259.662 141.461 258.376C140.503 257.185 139.642 255.915 138.92 254.527C137.45 251.714 136.39 248.703 135.108 245.8C134.046 243.39 134.667 241.153 135.8 238.88C137.971 234.523 140.033 230.109 142.127 225.715C142.459 225.02 142.719 224.292 143.021 223.581C144.314 220.525 144.267 217.281 144.46 214.037C145.042 204.337 149.013 195.888 154.304 188.008C154.959 187.03 155.991 186.211 157.018 185.614C158.739 184.611 160.205 184.929 161.557 186.383C164.545 189.6 167.101 193.141 168.418 197.393C169.995 202.495 171.382 207.659 172.788 212.815C173.058 213.802 173.373 214.276 174.51 214.247C178.16 214.156 181.818 214.122 185.465 214.239C186.809 214.284 187.293 213.874 187.381 212.575C187.849 205.65 190.112 199.176 192.526 192.782C193.769 189.481 195.348 186.274 197.868 183.683C200.121 181.366 202.292 181.475 204.549 183.805C206.425 185.738 207.32 188.167 208.488 190.497C211.793 197.089 213.72 204.078 214.752 211.364C215.032 213.344 215.081 215.479 215.886 217.238C218.319 222.548 221.168 227.659 223.665 232.945ZM207.69 215.419C208.132 215.272 208.728 214.529 208.682 214.126C208.235 210.106 207.978 206.023 207.03 202.117C206.421 199.602 205.027 195.898 202.955 194.265C201.512 193.126 200.682 193.968 200.191 195.356C199.009 198.711 198.822 202.903 198.715 206.435C198.626 209.421 199.069 212.363 199.325 215.329C199.478 217.092 199.933 217.495 201.556 217.145C203.629 216.698 205.674 216.091 207.69 215.419ZM160.286 214.117C161.001 208.299 161.5 202.335 160.333 196.541C160.116 195.454 159.58 194.415 158.318 194.337C157.048 194.257 156.486 195.238 156.073 196.291C156.018 196.433 155.959 196.578 155.916 196.726C155.132 199.438 154.257 202.127 153.599 204.872C153.038 207.216 152.688 209.613 152.317 211.998C151.973 214.228 152.474 215.02 154.676 215.469C155.901 215.717 157.191 215.652 158.451 215.709C159.538 215.756 160.148 215.241 160.286 214.117Z" fill="black"/>
<path d="M208.681 214.126C208.727 214.529 208.132 215.272 207.69 215.419C205.674 216.091 203.628 216.698 201.556 217.145C199.932 217.495 199.477 217.092 199.325 215.329C199.069 212.363 198.625 209.42 198.714 206.435C198.821 202.903 199.009 198.711 200.191 195.356C200.681 193.968 201.511 193.126 202.955 194.265C205.026 195.898 206.42 199.602 207.03 202.117C207.978 206.023 208.234 210.105 208.681 214.126Z" fill="#767676"/>
<path d="M160.333 196.541C161.5 202.335 161.001 208.298 160.286 214.117C160.148 215.241 159.539 215.755 158.451 215.708C157.19 215.651 155.901 215.716 154.676 215.469C152.474 215.02 151.972 214.227 152.316 211.998C152.688 209.613 153.038 207.216 153.599 204.871C154.257 202.127 155.132 199.437 155.916 196.725C155.959 196.578 156.018 196.433 156.072 196.29C156.486 195.237 157.048 194.257 158.317 194.337C159.58 194.414 160.116 195.454 160.333 196.541Z" fill="#767676"/>
<path d="M140.317 330.476C139.987 330.474 133.034 330.507 133.032 330.436C132.928 327.607 133.089 324.779 133.424 321.969C134.032 316.889 136.509 313.805 138.817 309.39C140.094 306.95 141.198 304.406 142.116 301.809C146.071 290.608 146.086 280.691 146.363 273.182C146.549 268.178 144.588 267.001 144.858 262.003L210.829 268.346C212.694 273.097 214.211 277.653 215.045 282.701C216.002 288.489 216.867 294.408 216.27 300.282C215.791 305.007 214.237 309.509 212.486 313.894C211.443 316.508 210.17 319.036 209.261 321.703C208.807 323.029 208.433 324.385 208.235 325.771C208.093 326.797 208.3 328.379 207.595 329.21C206.184 330.872 203.63 330.675 201.686 330.703C198.786 330.748 195.881 330.729 192.978 330.724C187.082 330.713 181.183 330.665 175.286 330.638C171.925 330.622 168.566 330.613 165.204 330.618C160.41 330.624 155.613 330.631 150.819 330.588C147.318 330.557 143.816 330.518 140.317 330.476Z" fill="black"/>
<path d="M210.829 268.346C212.694 273.098 214.211 277.654 215.045 282.701C216.002 288.49 216.867 294.409 216.27 300.282C215.791 305.007 214.237 309.51 212.486 313.894C211.443 316.508 210.17 319.037 209.261 321.704C208.807 323.03 208.433 324.386 208.235 325.772C208.093 326.798 208.3 328.38 207.595 329.21C206.184 330.872 203.63 330.675 201.686 330.704C198.786 330.749 195.881 330.729 192.978 330.724C187.082 330.714 181.183 330.666 175.286 330.638C171.925 330.622 168.566 330.614 165.204 330.618C160.41 330.625 155.613 330.631 150.82 330.588C147.317 330.557 143.815 330.518 140.316 330.477C139.986 330.474 133.033 330.507 133.031 330.437C132.928 327.608 133.088 324.78 133.423 321.969C134.031 316.89 136.508 313.805 138.816 309.391C140.094 306.95 141.197 304.406 142.115 301.81C146.07 290.608 146.085 280.691 146.362 273.182C146.548 268.179 144.587 267.002 144.857 262.004" stroke="#575757" stroke-width="6" stroke-miterlimit="10"/>
<path d="M144.858 262.004C143.642 260.855 142.495 259.662 141.461 258.376C140.504 257.185 139.643 255.915 138.92 254.526C137.45 251.713 136.39 248.702 135.108 245.799C134.047 243.389 134.667 241.153 135.801 238.879C137.971 234.523 140.033 230.109 142.127 225.714C142.459 225.019 142.719 224.291 143.021 223.581C144.314 220.524 144.268 217.28 144.461 214.037C145.042 204.336 149.013 195.888 154.304 188.007C154.959 187.03 155.992 186.21 157.018 185.614C158.739 184.611 160.206 184.928 161.557 186.383C164.545 189.599 167.102 193.14 168.419 197.393C169.995 202.494 171.382 207.658 172.789 212.815C173.058 213.801 173.373 214.275 174.51 214.247C178.16 214.156 181.818 214.122 185.465 214.238C186.809 214.283 187.293 213.873 187.382 212.575C187.85 205.65 190.113 199.176 192.526 192.782C193.77 189.48 195.348 186.274 197.869 183.682C200.122 181.366 202.292 181.475 204.549 183.804C206.425 185.737 207.321 188.167 208.488 190.497C211.794 197.088 213.72 204.077 214.753 211.363C215.033 213.343 215.081 215.479 215.887 217.237C218.319 222.548 221.168 227.659 223.664 232.945C225.068 235.916 225.989 239.159 225.167 242.442C224.072 246.808 221.434 250.56 219.168 254.351C217.393 257.319 215.545 260.349 213.117 262.821L210.828 268.346" stroke="#575757" stroke-width="6" stroke-miterlimit="10"/>
<path d="M220.085 246.711C221.676 246.574 222.727 247.221 223.357 248.07C224.896 250.14 225.115 252.46 224.887 254.717C224.645 257.121 224.281 259.581 223.1 261.88C222.492 263.064 221.602 264.161 220.801 265.293C219.074 267.736 217.486 270.247 216.65 272.887C215.104 277.779 217.972 282.455 216.996 287.818C216.859 288.565 214.32 289.584 213.346 289.806C212.011 290.111 210.408 290.081 209.226 289.536C206.596 288.325 206.897 285.401 206.556 283.577C206.025 280.742 205.325 277.871 205.852 275.013C206.031 274.034 206.304 273.062 206.695 272.11C207.636 269.817 209.2 267.656 210.675 265.491C211.925 263.658 213.209 261.833 214.237 259.942C214.785 258.936 215.263 257.913 215.636 256.874C216.14 255.474 216.514 254.055 216.769 252.626C216.984 251.423 216.999 250.059 217.567 248.899C217.92 248.178 218.204 247.304 219.298 246.887C219.551 246.791 219.815 246.735 220.085 246.711Z" fill="black" stroke="#575757" stroke-width="4" stroke-miterlimit="10"/>
<path d="M141.535 243.71C143.137 244.746 141.311 247.95 141.263 249.191C141.17 251.607 141.82 254.036 143.355 256.298C146.566 261.028 152.536 264.614 154.119 269.732C155.416 273.924 154.791 278.212 152.836 282.305C152.099 283.85 151.398 286.338 148.909 287.334C144.01 289.294 142.478 285.181 142.77 283.338C143.277 280.118 145.946 277.119 145.656 273.844C144.806 264.338 127.388 255.301 134.86 245.51C135.613 244.525 139.757 242.563 141.535 243.71Z" fill="black" stroke="#575757" stroke-width="4" stroke-miterlimit="10"/>
<path d="M193.679 241.952C192.899 241.361 192.863 240.221 192.921 238.989C192.978 237.791 193.133 236.601 193.238 235.406C193.4 233.564 193.718 231.699 194.594 230.047C195.646 228.066 197.338 226.188 199.411 225.259C200.481 224.779 201.816 224.465 202.995 224.465C205.242 224.465 207.399 225.398 209.007 226.934C211.812 229.611 212.534 233.188 212.915 236.896C213.071 238.41 214.121 241.663 211.922 242.232C211.174 242.426 210.325 242.303 209.565 242.266C208.392 242.209 207.219 242.259 206.046 242.259C203.259 242.259 200.433 242.115 197.651 242.249C196.791 242.29 195.927 242.407 195.066 242.372C194.447 242.347 194 242.196 193.679 241.952Z" fill="#B0FF27"/>
<path d="M200.277 237.893C200.277 242.041 201.542 245.404 203.102 245.404C204.662 245.404 205.927 242.041 205.927 237.893C205.927 233.745 204.663 231.583 203.102 231.583C201.541 231.583 200.277 233.745 200.277 237.893Z" fill="black"/>
<path d="M147.515 241.69C146.736 241.099 146.699 239.959 146.758 238.727C146.815 237.528 146.97 236.339 147.075 235.144C147.237 233.301 147.554 231.436 148.431 229.785C149.482 227.804 151.175 225.925 153.247 224.997C154.318 224.517 155.653 224.202 156.832 224.202C159.079 224.202 161.235 225.136 162.844 226.671C165.649 229.349 166.37 232.926 166.752 236.634C166.908 238.147 167.958 241.401 165.758 241.97C165.011 242.164 164.161 242.041 163.402 242.004C162.229 241.947 161.056 241.997 159.883 241.997C157.096 241.997 154.27 241.853 151.488 241.987C150.628 242.028 149.764 242.145 148.903 242.11C148.284 242.084 147.836 241.933 147.515 241.69Z" fill="#B0FF27"/>
<path d="M154.114 237.63C154.114 241.779 155.379 245.142 156.939 245.142C158.499 245.142 159.764 241.779 159.764 237.63C159.764 233.482 158.499 231.321 156.939 231.321C155.378 231.321 154.114 233.482 154.114 237.63Z" fill="black"/>
<path d="M177.805 243.361L183.182 243.371L175.052 251.867" stroke="#767676" stroke-width="3" stroke-miterlimit="10"/>
<path d="M182.232 243.361L176.855 243.371L184.985 251.867" stroke="#767676" stroke-width="3" stroke-miterlimit="10"/>
<path d="M60.3938 357.144C57.3196 348.542 54.6059 339.818 51.684 331.016C28.4523 347.689 8.98243 383.216 13.8152 421.987C18.6598 460.979 40.0514 489.542 77.256 509.082C74.8686 481.062 80.9237 456.273 95.8996 433.666C98.1937 430.179 97.728 427.965 95.6087 424.942C80.8304 403.776 68.9875 381.213 60.3938 357.144ZM229.056 423.349C239.793 423.571 246.419 420.836 250.82 411.669C253.533 406.012 257.375 400.841 260.66 395.539C204.718 395.505 149.58 395.472 93.4053 395.45C98.4356 403.41 103.28 410.883 107.892 418.478C110.069 422.064 112.922 423.204 117.312 423.183C154.566 422.995 191.828 422.597 229.056 423.349ZM340.846 423.604C345.539 386.095 331.752 354.709 302.104 328.426C301.336 330.308 300.987 330.961 300.8 331.659C291.741 364.773 277.196 395.583 257.26 424.035C254.698 427.689 256.515 429.682 258.238 432.206C270.384 449.987 276.835 469.526 278.058 490.65C278.384 496.274 278.559 501.899 278.815 507.944C314.157 489.721 336.026 461.998 340.846 423.604ZM261.65 382.752C266.169 382.774 268.089 381.113 269.72 377.571C306.529 297.449 307.95 216.597 275.332 135.026C274.785 133.664 274.098 132.347 273.155 130.342C271.654 130.199 269.837 129.856 268.02 129.856C207.234 129.822 146.448 129.867 85.6622 129.712C81.4002 129.701 79.677 131.184 78.2219 134.694C44.3351 216.632 47.3051 297.738 83.8927 378.192C85.3487 381.391 87.3049 382.321 90.8792 382.321C147.799 382.342 204.731 382.442 261.65 382.752ZM239.456 434.997C233.692 435.207 227.904 434.763 223.305 434.631C222.419 438.572 221.582 442.469 220.766 446.322C190.373 446.842 159.072 449.333 129.925 440.111C129.68 438.472 129.424 436.812 129.157 435.14C123.613 435.284 117.675 435.217 111.782 435.715C110.304 435.837 108.569 437.476 107.648 438.838C92.2075 461.754 87.0249 486.72 91.2525 513.6C91.6946 516.479 91.6013 520.132 90.0765 522.413C87.7479 525.877 83.6491 524.76 80.1092 523.309C34.4494 504.676 7.29445 471.951 1.1343 425.197C-4.37351 383.404 10.2174 347.844 44.0216 320.044C47.7246 316.999 48.656 314.188 47.8179 309.671C34.5427 238.196 43.8821 169.655 78.3152 104.635C100.021 63.6166 130.437 29.4956 169.692 2.55878C174.723 -0.88424 178.658 -0.850648 183.701 2.6475C225.016 31.4321 256.679 67.8564 278.745 111.686C310.441 174.647 318.593 240.642 305.621 309.139C304.933 312.77 305.492 314.885 308.765 317.42C362.587 359.169 370.506 435.15 326.792 486.631C312.725 503.182 295.176 514.984 274.565 522.833C265.959 526.098 261.871 522.833 263.363 514.198C267.939 487.616 263.189 462.75 248.353 439.678C246.198 436.335 243.683 434.841 239.456 434.997ZM182.117 17.1957C177.413 13.7415 174.478 14.5167 170.845 17.8383C156.418 31.035 141.163 43.5236 127.678 57.5506C110.98 74.9216 98.0423 94.9707 87.5033 116.017C147.148 116.051 206.466 116.084 265.785 116.128C265.716 115.907 265.633 115.154 265.308 114.512C245.395 76.0389 217.901 43.4676 182.117 17.1957Z" fill="black"/>
<path d="M95.8988 433.668C80.9238 456.275 74.8687 481.063 77.2552 509.084C40.0505 489.543 18.659 460.98 13.8144 421.989C8.98248 383.218 28.4524 347.69 51.6832 331.018C54.6061 339.819 57.3187 348.543 60.3929 357.146C68.9867 381.214 80.8295 403.777 95.607 424.945C97.7271 427.967 98.1929 430.181 95.8988 433.668Z" fill="#154F99"/>
<path d="M270.571 246.633C270.571 295.5 228.906 335.113 177.505 335.113C126.093 335.113 84.429 295.501 84.429 246.633C84.429 197.754 126.094 158.142 177.505 158.142C228.905 158.142 270.571 197.754 270.571 246.633Z" stroke="black" stroke-width="15" stroke-miterlimit="10"/>
<path d="M247.2 468.939H110.568L137.093 430.176H218.923L247.2 468.939Z" fill="#B9534F"/>
<path d="M247.2 464.433C203.435 464.433 159.671 464.433 115.907 464.433C114.127 464.433 112.348 464.433 110.567 464.433C111.871 466.594 113.175 468.754 114.479 470.914C123.321 457.998 132.163 445.081 141.004 432.165C139.7 432.876 138.396 433.588 137.093 434.299C164.369 434.299 191.645 434.299 218.921 434.299C217.618 433.588 216.314 432.877 215.01 432.165C224.436 445.081 233.862 457.998 243.287 470.914C246.593 475.444 254.451 471.144 251.111 466.566C244.971 458.151 238.83 449.737 232.69 441.322C229.651 437.157 226.611 432.992 223.571 428.827C221.78 426.372 219.802 425.684 216.822 425.684C192.323 425.684 167.823 425.684 143.322 425.684C140.094 425.684 135.223 424.834 133.181 427.818C130.889 431.167 128.597 434.514 126.304 437.864C119.755 447.431 113.205 456.999 106.656 466.566C104.753 469.346 107.259 473.047 110.567 473.047C154.332 473.047 198.095 473.047 241.86 473.047C243.64 473.047 245.42 473.047 247.2 473.047C253.042 473.047 253.042 464.433 247.2 464.433Z" fill="black"/>
</svg>
